
<svg xmlns="http://www.w3.org/2000/svg" width="127.315" height="40.28" viewBox="0 0 127.315 40.28"><defs><style>.a{fill:#f7fafc;}</style></defs><g transform="translate(-672.826 -281.735)"><path class="a" d="M26.27-25.53c-.148-.407-3.219-1.776-4.07-1.554-.222.037-.518.444-.814,1.036-.518-.851-1.221-1.517-1.628-1.406-3.515.925-8.177,4.884-11.581,10.915,0,.037,0,.037-.037.074-1.628,3.441,1.295,5.7,3.4,8.547-3.922,2.479-7.1,4.44-7.881,5.624a2.765,2.765,0,0,0,.666,3.515c.148.111.333.074.37-.074.962-2.331,4-5.069,7.659-7.659.518,1.073,1.369,2.7.74,4.181-.777,1.85-4.625,5.106-7.807,5.106C1.147,2.775,2.22-.777,1.517-.518,1.073-.333-.592,6.7,5.4,6.7A12.687,12.687,0,0,0,16.909-.074C18.685-4,16.946-6.29,15.17-8.51a105.406,105.406,0,0,0,9.472-7.252c.666-.629,0-1.517-.555-1.036A79.109,79.109,0,0,1,14.245-9.62c-1.517-2-3.071-3.848-1.628-6.549a19.193,19.193,0,0,1,7.252-6.1c-.37,1.036-.629,1.924-.7,2.22-.148.814,2.072,2.183,2.146,2.109.074-.111-.148-.37-.148-.37.3-2.96,4.7-6.771,4.7-6.771S26.418-25.123,26.27-25.53Zm6.808,5.661c-.555.444-.74,2.442-.74,2.442-.555.888-1.11,1.887-1.7,2.96a108.2,108.2,0,0,1-8.51,10.656c1.628-5.4,6.512-12.395,6.66-12.95.444-1.776-2.7-3.626-3.4-3.108-.592.444-.74,2.442-.74,2.442C21.867-12.95,18.315-5.513,18.648-3.108A6.543,6.543,0,0,0,21.5,1.517c.444.074.444-.518.444-.518A.036.036,0,0,0,21.9.962h.037c.555-1.591,3.478-5.994,5.994-9.657C26.714-5.809,24.494-.666,22.2,3.811c-.518,1-2.035,3.182-3.293,2.442-1.258-.777-1.7-1.628-1.813-1.073-.148.555,1.3,2.812,3.811,3.256S25.086,5.365,26.159,3.4c1.073-1.924,3.848-8.288,6.66-13.912,1.776-3.256,3.589-5.92,3.7-6.253C36.926-18.537,33.818-20.387,33.078-19.869ZM53.65-14.985c-4.292,4.958-7.067,8.436-8.547,10.4,1.961-5.254,6.66-11.581,6.919-12.062.666-1.369-2.923-3.626-3.663-3C43.66-15.688,38.48-6.956,36.223-3.071c1.369-5.439,6.771-13.135,6.919-13.69.444-1.776-2.7-3.626-3.441-3.108-.555.444-.74,2.442-.74,2.442C36.186-12.95,32.634-5.513,33-3.108a6.426,6.426,0,0,0,2.849,4.625c.407.074.444-.444.444-.518,1.221-3.256,6.179-11.433,9.805-16.354-2.516,4.4-5.069,10.175-4.773,12.247a6.426,6.426,0,0,0,2.849,4.625c.444.074.444-.518.444-.518L44.511.814c1.85-4.884,9.213-13.949,9.657-14.837C54.871-15.355,54.131-15.5,53.65-14.985ZM67.377-27.232c-.555.407-.74,2.442-.74,2.442-.962,1.554-2.59,4.255-4.255,7.252-.925-.962-2.775-2.4-4.366-2.4-2.22,0-7.548,9.176-7.844,14.615S52.466.407,53.206.407c.518,0,1.924-1.961,3.182-4v.3a6.5,6.5,0,0,0,2.886,4.81c.444.074.407-.518.407-.518A1.368,1.368,0,0,1,59.5.592c2-4.958,9.139-13.727,9.583-14.615.7-1.332-.074-1.48-.518-.962-3.7,4.255-6.253,7.4-7.844,9.435,3.108-7.215,10.4-17.982,10.619-18.463C72.039-25.419,68.117-27.787,67.377-27.232ZM54.094-3.7c-1.036,0,0-6.66,4.958-12.1a1.338,1.338,0,0,1,2.22.333c-.481.888-.925,1.776-1.369,2.664C58.719-10.767,54.612-3.7,54.094-3.7ZM76.22-14.985c-4.329,4.958-7.067,8.436-8.584,10.4,1.961-5.254,6.7-11.581,6.919-12.062.7-1.406-3.256-3.737-3.959-3.219-.592.444-.74,2.442-.74,2.442C67.081-12.95,63.529-5.513,63.862-3.108a6.543,6.543,0,0,0,2.886,4.625c.444.074.407-.518.407-.518a.283.283,0,0,1-.074-.185c1.813-4.884,9.176-13.949,9.657-14.837C77.441-15.355,76.664-15.5,76.22-14.985Zm-1.3-5.957c.962-3.256,3.145-4.144,3-5.143-.111-1-2.479-1.739-3-1.665s-2.849,4.514-2.4,5.365A4.171,4.171,0,0,0,74.925-20.942Zm18.056,6.919c.7-1.332-.074-1.48-.518-.962-3,3.441-5.217,6.142-6.808,8.14-3.219,4-4.4,5.106-4.847,5.439a28.715,28.715,0,0,1-.444-5.55c2.627-.814,5.772-2.738,6.808-5.994,1.7-5.18-1.517-5.994-2.257-6.105-.555-.074-2.4,2-4,4,2.775-4.7,5.439-8.7,5.587-8.954.666-1.406-3.256-3.774-3.959-3.219-.592.407-.74,2.442-.74,2.442-2.775,4.44-10.582,17.945-10.286,21.5a6.609,6.609,0,0,0,2.886,4.81c.444.074.444-.518.444-.518a3.568,3.568,0,0,1-.37-1.554c-.074-1.369.74-3.626,1.961-6.216.037,0,.074.037.111.037.148,2.627.407,4.662.925,5.55C78.366.407,80.327,1.961,82.1,1.961c.444,0,1-.666,1.147-.962.7-1.369,5.069-8.621,5.069-8.621C90.576-10.8,92.722-13.542,92.981-14.023ZM83.509-15.1c1.036.148,1.073,4.144-5.7,6.475l-.148.111C79.735-11.063,83.1-15.133,83.509-15.1Zm17.723-2.294c-.888-.962-2.812-2.553-4.44-2.553-2.257,0-7.585,9.176-7.881,14.615S91.242.407,91.945.407c.555,0,2.035-2.146,3.33-4.255a2.467,2.467,0,0,0,0,.74,6.666,6.666,0,0,0,2.849,4.625c.444.074.444-.518.444-.518L98.457.814c1.85-4.847,9.213-13.912,9.694-14.837.7-1.332-.074-1.48-.518-.962-4.329,4.958-7.1,8.436-8.584,10.4,1.961-5.254,6.7-11.581,6.919-12.062.666-1.406-2.849-3.589-3.589-3.071A7.254,7.254,0,0,0,101.232-17.39Zm-2.294,4.107S93.425-3.7,92.833-3.7c-1.036,0,0-6.66,4.958-12.1a1.359,1.359,0,0,1,2.257.407ZM126.022-26.64c-1,0-4.81.259-9.139.592-1.036-.851-2.516-1.517-2.923-1.184a2.618,2.618,0,0,0-.592,1.443c-5.106.407-10.064.777-11.137.74-2.22-.037-1.628-2.109-2.331-2.109-.555,0-1.924,5.143,2.849,5.254,1.406,0,5.217-.333,9.176-.74-3.367,5.624-9.213,16.243-8.954,19.351a6.5,6.5,0,0,0,2.886,4.81c.444.074.407-.518.407-.518a1.368,1.368,0,0,1-.185-.407c2-4.958,9.139-13.727,9.583-14.615.7-1.332-.074-1.48-.518-.962-3.7,4.255-6.253,7.4-7.844,9.435,2.627-6.142,8.362-14.911,10.1-17.649,2.664-.259,4.81-.444,5.55-.444a14.679,14.679,0,0,1,2.812.333,3.187,3.187,0,0,1-1.887.74c-.037.592,4.107.814,4.329-.111C128.39-23.606,128.427-26.566,126.022-26.64Z" transform="translate(671.859 309.49)"/><path class="a" d="M1.95-2.3c-.9,0-.312,2.223.546,2.223,29.094,0,31.434,8.7,32.1,7.488.351-.663.273-3.354-.819-5.46C31.2-2.652,3.276-2.3,1.95-2.3Z" transform="translate(697.859 314.49)"/></g></svg>