<svg xmlns="http://www.w3.org/2000/svg" width="91.812" height="31.414" xml:space="preserve"><path d="M27.732 18.348c-.496 0-.948.022-1.421.045 1.557-4.107 2.964-7.921 3.189-8.373.339-.767-2.88-2.302-2.88-2.347v.022c-1 .451-4.838 7.47-6.305 8.598.745-3.069 2.783-5.665 2.783-6.364 0-.858-2.603-2.505-3.302-2.505 0 .874-1.212 2.717-2.194 4.625-.67-1.156-1.838-2.459-3.167-2.459-4.22 0-11.155 3.633-11.155 3.633 0-1.241 9.227-9.365 13.356-9.365.248 0 .449.045.652.113-.88.857-1.693 1.851-1.941 2.482-.339 1.241 1.15 2.505 1.241 2.415.18-1.783 3.678-4.265 5.438-4.265.361 0-1.489-2.279-2.505-2.279-.203 0-.542.203-.948.497C17.648 1.603 16.204 0 14.985 0 12.209 0 0 6.748 0 10.968c0 1.286 2.234 5.574 2.573 5.574.316 0 8.147-4.514 12.119-4.514.609 0 1.038-.022 1.038.181 0 .857-4.04 5.619-6.296 5.619-1.196 0-1.332-.745-1.332-.745-.451 0 .655 4.83 3.069 4.83 1.62 0 4.09-2.649 5.63-5.117.941.901 2.819 1.957 2.819 1.957v-.022s.197.022.22.022c.564 0 3.856-4.762 5.548-7.47a99.796 99.796 0 0 1-2.541 7.605c-4.31 1.038-7.206 3.363-7.206 5.574 0 4.243 2.807 4.988 4.499 4.988 1.354 0 3.254-3.814 4.992-8.057 3.385.045 4.448 1.76 4.448 3.114 0 .542 1.716-1.219 1.716-2.009.001-1.984-1.127-4.15-3.564-4.15zm-8.892 9.004c-.135 0-.474-.226-.474-2.302 0-1.376 1.376-2.55 3.34-3.182-1.263 3.114-2.437 5.484-2.866 5.484zM60.403 6.229c0-.677.813-2.482 1.309-3.543.339-.767-2.799-2.324-3.092-2.324 0 .406-1.603 2.482-1.603 3.678.001 1.038 2.957 2.189 3.386 2.189zm30.642 3.656s-3.995 5.868-5.98 8.215c.474-2.663 1.557-5.665 2.663-8.26.429.067.857.135 1.331.226.835.067 2.527-3.995 1.647-3.137-.248.249-.926.293-1.761.226.858-1.828 1.106-2.28 1.241-2.618.361-.79-2.459-2.798-2.956-2.482-.768 1.376-1.241 2.482-2.144 4.604-.903-.09-1.603-.113-1.806.09-.699.699-2.054 2.821-1.715 3.137.203.226.271-.361 2.369-.384-.114.297-.223.592-.331.887-.734.963-3.629 4.724-5.354 6.448.587-2.889 2.393-6.161 2.776-6.973.361-.79-2.776-2.347-3.092-2.347 0 .113-.226.609-.609 1.332-.136.248-.294.542-.497.88-.902-1.083-3.521-2.031-4.604-2.031-.182 0-.408.143-.656.377-.373-.643-.924-1.371-1.531-1.371-1.038 0-3.407 2.279-5.371 4.717 1.625-3.611 3.634-7.334 3.634-7.854 0-1.196-2.889-2.438-3.272-2.438.334.509-2.16 5.449-3.977 9.792l-3.989 5.306c.475-3.024 2.212-6.658 2.596-7.493.339-.768-2.799-2.325-3.092-2.325 0 .188-.834 1.962-1.633 3.993-1.05 1.374-3.385 4.386-4.367 5.283.767-4.175 3.565-10.674 3.949-11.509.36-.79-2.889-2.686-3.363-2.37-.744 2.257-2.414 5.89-2.911 6.838-.609-.993-2.82-1.444-3.972-1.444-.85 0-2.958 2.698-3.763 5.965-1.062 1.5-2.371 3.293-3.118 4.101.813-2.866 2.37-6.545 2.37-7.448 0-.677-2.528-2.482-3.047-2.482-.813 0-2.708 3.228-4.152 6.048.699-1.873 1.354-3.543 1.354-3.836 0-.429-1.782-1.941-2.934-1.941 0 1.625-3.047 8.215-3.047 9.185 0 .542 2.708 2.189 3.047 2.189.339-1.151 3.205-5.958 4.942-8.508-.88 2.686-2.304 6.161-2.304 7.063 0 .542 3.002 2.392 3.002 2.392v-.022s.227.022.271.022c.17 0 1.775-2.063 3.254-4.104.297 1.176 3.722 2.208 4.067 2.208.271 0 1.304-1.535 2.478-3.543-.136.699-.195 1.165-.195 1.617 0 1.016 3.281 1.887 3.845 1.887h.045c.203 0 1.805-1.881 3.268-3.772a7.045 7.045 0 0 0-.156 1.325c0 .925 2.46 2.473 3.295 2.789.226.158.451.311.699.311.143 0 .897-1.044 1.792-2.369-.02.157-.032.31-.032.442 0 1.264 3.069 2.575 3.565 2.575 0 0-.022-.111-.045-.314.293-.7 1.286-3.046 1.896-3.633 0 0 1.467 8.237 5.71 8.237 1.512 0 2.775-1.828 2.302-1.828-2.369 0-6.07-6.612-6.07-8.395 0 0 .89-1.498 3.503-3.209-.841 1.555-1.564 3.521-1.564 4.902 0 1.038 2.979 2.55 4.152 3.024.158.09.317.136.453.136.203 0 .468-.835 1.468-2.009v.181c0 .745 1.624 1.873 2.662 2.438.271.203.609.361.857.361.375 0 2.421-2.561 4.103-4.75-.42 1.434-.676 2.611-.676 3.305 0 .813 1.76 2.076 2.708 2.595.248.203.541.339.79.339.384 0 6.747-9.569 6.747-9.569.002-2.349-.765-1.22-.765-1.22zm-43.433.835c-1.4 2.325-2.992 4.785-3.992 5.868v-.022c0-3.069 2.254-7.312 3.766-7.312.295 0 .451.181.564.361-.135.36-.248.744-.338 1.105zm24.41 5.596c.271-1.828 2.167-6.319 3.565-6.319.361 0 .678.113.926.249-1.692 2.775-4.423 7.108-4.491 6.07zm-8.073 6.811c-.271-.271-.79-.497-1.558-.677-.767-.181-1.703-.312-2.809-.395a47.18 47.18 0 0 0-3.734-.113 81.367 81.367 0 0 0-8.913.552 80.47 80.47 0 0 0-4.513.654 52.805 52.805 0 0 0-4.106.88c-1.278.331-2.399.7-3.361 1.106a1.932 1.932 0 0 0-.485.417c-.113.143-.207.297-.282.462s-.154.346-.237.542a6.206 6.206 0 0 1-.327.654c-.03.03-.098.079-.203.146a6.037 6.037 0 0 1-.338.203 7.596 7.596 0 0 0-.339.203c-.105.068-.165.124-.181.169-.301.527-.541 1.038-.722 1.534s-.297.914-.35 1.252-.026.557.079.654c.104.098.293.011.563-.26.226-.226.605-.545 1.14-.958s1.29-.861 2.268-1.343 2.2-.978 3.667-1.489c1.467-.511 3.249-.97 5.348-1.376 2.098-.406 4.538-.741 7.321-1.004s5.972-.395 9.567-.395c.707 0 1.286.053 1.737.158.451.105.805.218 1.061.338.301.15.534.316.699.497.12-.15.166-.346.136-.587-.03-.195-.121-.443-.271-.745-.15-.296-.436-.657-.857-1.079z"/></svg>