<svg xmlns="http://www.w3.org/2000/svg" xml:space="preserve" width="256" height="256">
    <path d="M164.664 150.395c-2.645 0-5.049.121-7.574.241 8.295-21.878 14.422-42.193 15.623-44.598C174.518 101.951 159 93.777 156 93.536v.12c-1 2.404-24.398 39.789-32.211 45.8 3.967-16.349 15.509-30.172 15.509-33.899 0-4.568-13.523-13.343-17.249-13.343 0 5.946-10.297 20.329-15.475 33.083 0-.008.017-.018.017-.026 0-4.208-8.888-21.518-20.067-21.518-22.479 0-59.379 19.354-59.379 19.354 0-6.611 49.167-49.886 71.166-49.886 1.322 0 2.405.24 3.487.601-4.688 4.568-9.015 9.857-10.337 13.223-1.803 6.611 6.131 13.343 6.612 12.862.961-9.497 19.594-22.719 28.97-22.719 1.923 0-7.934-12.141-13.343-12.141-1.082 0-2.885 1.082-5.049 2.645-4.928-6.491-12.622-15.026-19.113-15.026-14.786 0-79.819 35.943-79.819 58.422 0 6.852 11.901 29.691 13.704 29.691 1.683 0 43.396-24.042 64.552-24.042 3.246 0 5.53-.12 5.53.962 0 4.568-21.518 29.932-33.538 29.932-6.371 0-7.093-3.967-7.093-3.967-2.404 0 3.486 25.725 16.349 25.725 10.255 0 27.91-19.938 34.65-34.481-.094.775-.07 1.535-.07 2.266 0 4.328 16.198 15.387 19.198 15.387v-.12s.276.12.396.12c3.005 0 20.152-25.364 29.168-39.789-3.366 11.781-8.436 26.566-13.725 40.511-22.96 5.529-38.477 17.911-38.477 29.691 0 22.599 14.9 26.566 23.916 26.566 7.212 0 17.308-20.315 26.564-42.915 18.031.24 23.679 9.376 23.679 16.589 0 2.885 9.136-6.491 9.136-10.698-.001-10.581-6.012-22.121-18.994-22.121zm-47.363 47.963c-.721 0-2.524-1.202-2.524-12.262 0-7.332 7.333-13.583 17.792-16.949-6.733 16.589-12.984 29.211-15.268 29.211z"/><path d="M241.596 110.005s-18.031 26.566-25.484 34.62c4.327-15.267 12.621-34.86 12.621-39.669 0-3.606-13.463-13.223-16.229-13.223-4.326 0-14.424 17.19-22.117 32.216 3.727-9.978 7.212-18.873 7.212-20.436 0-2.284-9.497-10.338-15.627-10.338 0 8.655-16.229 43.756-16.229 48.925 0 2.885 14.425 11.66 16.229 11.66 1.803-6.131 17.069-31.735 26.325-45.318-4.688 14.305-11.772 32.816-11.772 37.625 0 2.885 15.476 12.742 16.476 12.742v-.12c1 0 .714.12.954.12 1.803 0 32.212-43.035 32.212-43.035-.001-12.982-4.571-5.769-4.571-5.769z"/>
    <style>path{fill:#11172A}@media(prefers-color-scheme:dark){path{fill:#A9B4F3}}</style>
</svg>
